# xmcd CD database file
#
# Track frame offsets:
#	150
#	35460
#	67369
#	110770
#	138272
#	157175
#	178004
#	203779
#	236195
#
# Disc length: 3463 seconds
#
# Revision: 0
# Processed by: cddbd v1.5.2PL0 Copyright (c) Steve Scherf et al.
# Submitted via: CDex 1.51
#
DISCID=8b0d8509
DTITLE=COMA - ornamental urban shrubbery
DYEAR=2006
DGENRE=Jazz
TTITLE0=Tin-smiths' Ballet
TTITLE1=Ornamental Urban Shrubbery
TTITLE2=Gort, Kiattu Barrata Niktoe
TTITLE3=Austere Fume
TTITLE4=Fire-eating Duelist
TTITLE5=Portable Inorganic Matter
TTITLE6=Unrepentant Regret
TTITLE7=Taciturnity Master
TTITLE8=Diacoustical Muzzle
EXTD=YEAR: 2006
EXTT0=
EXTT1=
EXTT2=
EXTT3=
EXTT4=
EXTT5=
EXTT6=
EXTT7=
EXTT8=
PLAYORDER=
